<?xml version="1.0" encoding="UTF-8"?>
<!DOCTYPE svg PUBLIC "-//W3C//DTD SVG 1.1//EN" "http://www.w3.org/Graphics/SVG/1.1/DTD/svg11.dtd">
<svg xmlns="http://www.w3.org/2000/svg" version="1.1" width="398px" height="340px" style="shape-rendering:geometricPrecision; text-rendering:geometricPrecision; image-rendering:optimizeQuality; fill-rule:evenodd; clip-rule:evenodd" xmlns:xlink="http://www.w3.org/1999/xlink">
<g><path style="opacity:1" fill="#2d2d2b" d="M 128.5,11.5 C 131.084,15.6662 133.417,19.9996 135.5,24.5C 133.459,24.8541 131.626,24.8541 130,24.5C 129.342,26.7999 128.842,29.1332 128.5,31.5C 128.709,32.9945 129.376,34.1612 130.5,35C 129.446,36.3876 129.28,37.8876 130,39.5C 130.448,41.2244 131.282,41.891 132.5,41.5C 132.291,42.086 131.957,42.586 131.5,43C 132.624,43.2492 133.624,43.7492 134.5,44.5C 134.154,45.6956 133.654,45.6956 133,44.5C 132.517,45.448 132.351,46.448 132.5,47.5C 129.125,42.0432 127.125,36.0432 126.5,29.5C 126.334,22.825 126.5,16.1583 127,9.5C 127.278,10.4158 127.778,11.0825 128.5,11.5 Z"/></g>
<g><path style="opacity:0.851" fill="#7b7b78" d="M 128.5,11.5 C 127.778,11.0825 127.278,10.4158 127,9.5C 126.5,16.1583 126.334,22.825 126.5,29.5C 124.014,21.923 124.014,14.2563 126.5,6.5C 127.95,7.84983 128.617,9.5165 128.5,11.5 Z"/></g>
<g><path style="opacity:0.643" fill="#7d7d7b" d="M 135.5,24.5 C 137.587,25.5846 138.92,27.2512 139.5,29.5C 137.413,28.4154 136.08,26.7488 135.5,24.5 Z"/></g>
<g><path style="opacity:1" fill="#171717" d="M 135.5,24.5 C 136.08,26.7488 137.413,28.4154 139.5,29.5C 143.167,32.8333 146.833,36.1667 150.5,39.5C 150.682,42.703 152.348,44.5363 155.5,45C 155.167,45.3333 154.833,45.6667 154.5,46C 157.279,46.561 159.946,47.3944 162.5,48.5C 163.492,48.3284 164.158,48.6618 164.5,49.5C 164.973,50.9063 165.973,51.573 167.5,51.5C 169.299,54.3061 171.966,55.6395 175.5,55.5C 182.036,58.2645 188.703,60.7645 195.5,63C 201.392,65.4375 206.726,68.6042 211.5,72.5C 211.577,73.7498 212.244,74.5831 213.5,75C 212.207,75.49 210.873,75.6567 209.5,75.5C 206.14,75.3841 202.807,75.0508 199.5,74.5C 196.016,73.8346 192.349,73.5013 188.5,73.5C 182.914,73.3182 177.58,73.9848 172.5,75.5C 169.196,76.4941 165.863,77.4941 162.5,78.5C 158.75,76.6367 155.417,74.3034 152.5,71.5C 151.738,69.7376 150.404,68.7376 148.5,68.5C 141.639,62.6423 136.306,55.6423 132.5,47.5C 132.351,46.448 132.517,45.448 133,44.5C 133.654,45.6956 134.154,45.6956 134.5,44.5C 133.624,43.7492 132.624,43.2492 131.5,43C 131.957,42.586 132.291,42.086 132.5,41.5C 131.282,41.891 130.448,41.2244 130,39.5C 129.28,37.8876 129.446,36.3876 130.5,35C 129.376,34.1612 128.709,32.9945 128.5,31.5C 128.842,29.1332 129.342,26.7999 130,24.5C 131.626,24.8541 133.459,24.8541 135.5,24.5 Z"/></g>
<g><path style="opacity:0.986" fill="#565754" d="M 150.5,39.5 C 154.524,42.5314 158.524,45.5314 162.5,48.5C 159.946,47.3944 157.279,46.561 154.5,46C 154.833,45.6667 155.167,45.3333 155.5,45C 152.348,44.5363 150.682,42.703 150.5,39.5 Z"/></g>
<g><path style="opacity:0.549" fill="#888886" d="M 169.5,42.5 C 169.833,43.1667 170.167,43.8333 170.5,44.5C 167.54,43.968 167.207,43.3013 169.5,42.5 Z"/></g>
<g><path style="opacity:0.565" fill="#91928e" d="M 221.5,44.5 C 227.921,45.5292 233.921,47.5292 239.5,50.5C 233.205,49.0684 227.205,47.0684 221.5,44.5 Z"/></g>
<g><path style="opacity:0.275" fill="#9f9f9d" d="M 164.5,49.5 C 166.027,49.427 167.027,50.0937 167.5,51.5C 165.973,51.573 164.973,50.9063 164.5,49.5 Z"/></g>
<g><path style="opacity:0.91" fill="#696966" d="M 182.5,50.5 C 185.491,50.1663 187.824,51.1663 189.5,53.5C 186.843,53.0652 184.509,52.0652 182.5,50.5 Z"/></g>
<g><path style="opacity:1" fill="#61615d" d="M 167.5,51.5 C 170.485,52.3257 173.151,53.659 175.5,55.5C 171.966,55.6395 169.299,54.3061 167.5,51.5 Z"/></g>
<g><path style="opacity:0.714" fill="#7c7c79" d="M 189.5,53.5 C 195.523,53.6691 201.523,54.1691 207.5,55C 208.737,55.2321 209.737,55.7321 210.5,56.5C 203.29,56.0332 196.29,55.0332 189.5,53.5 Z"/></g>
<g><path style="opacity:1" fill="#60615d" d="M 62.5,58.5 C 61.213,57.2317 60.213,57.565 59.5,59.5C 58.5067,64.1196 58.1734,68.7863 58.5,73.5C 57.2423,66.8192 57.2423,59.9858 58.5,53C 58.8333,52.1667 59.1667,51.3333 59.5,50.5C 60.5103,53.1828 61.5103,55.8495 62.5,58.5 Z"/></g>
<g><path style="opacity:0.49" fill="#7f807c" d="M 126.5,61.5 C 125.842,60.6016 125.176,59.6016 124.5,58.5C 123.583,59.1272 122.583,59.4606 121.5,59.5C 124.845,55.1449 126.512,55.8115 126.5,61.5 Z"/></g>
<g><path style="opacity:1" fill="#181817" d="M 62.5,58.5 C 64.3582,60.8831 65.6916,63.5498 66.5,66.5C 66.427,68.0269 67.0937,69.0269 68.5,69.5C 69.3382,69.8417 69.6716,70.5084 69.5,71.5C 69.7376,73.4044 70.7376,74.7377 72.5,75.5C 76.8062,80.4729 81.4729,85.1396 86.5,89.5C 86.5,91.5 87.5,92.5 89.5,92.5C 94.8564,96.1995 100.19,99.8661 105.5,103.5C 105.953,104.458 106.619,105.292 107.5,106C 105,106.833 104.833,108 107,109.5C 108.401,107.808 110.234,107.141 112.5,107.5C 119.902,110.871 127.235,114.204 134.5,117.5C 134.804,118.15 135.137,118.817 135.5,119.5C 138.438,120.489 141.438,121.156 144.5,121.5C 145.164,123.487 146.331,125.154 148,126.5C 150.12,125.395 152.287,125.395 154.5,126.5C 159.307,128.403 163.64,131.07 167.5,134.5C 168.938,139.604 172.271,142.604 177.5,143.5C 179.633,145.091 181.299,147.091 182.5,149.5C 182.738,151.404 183.738,152.738 185.5,153.5C 187.262,154.262 188.262,155.596 188.5,157.5C 188.427,159.027 189.094,160.027 190.5,160.5C 193.258,163.678 195.258,167.345 196.5,171.5C 197.256,175.767 198.589,179.767 200.5,183.5C 202.429,189.915 202.929,196.582 202,203.5C 201.61,206.104 200.776,208.438 199.5,210.5C 198.883,210.389 198.383,210.056 198,209.5C 196.617,212.368 195.784,215.368 195.5,218.5C 191.211,224.815 185.544,229.482 178.5,232.5C 177.209,232.737 176.209,232.404 175.5,231.5C 177.349,225.376 175.349,221.043 169.5,218.5C 166.66,217.083 163.993,217.416 161.5,219.5C 149.364,222.525 137.364,222.025 125.5,218C 123.253,216.723 121.253,215.223 119.5,213.5C 119.047,212.542 118.381,211.708 117.5,211C 119.134,210.506 120.801,210.34 122.5,210.5C 125.718,211.954 129.218,212.621 133,212.5C 135.361,212.496 137.527,212.163 139.5,211.5C 139.833,211.5 140.167,211.5 140.5,211.5C 142.857,211.663 145.19,211.497 147.5,211C 149.653,210.901 151.319,210.067 152.5,208.5C 155.09,207.872 157.423,206.705 159.5,205C 156.736,205.524 154.07,206.358 151.5,207.5C 150.833,207.5 150.5,207.833 150.5,208.5C 142.608,210.14 134.942,209.807 127.5,207.5C 125.485,206.076 123.152,205.41 120.5,205.5C 115.173,203.841 110.507,201.174 106.5,197.5C 105.878,196.373 105.045,195.373 104,194.5C 103.251,193.365 103.417,192.365 104.5,191.5C 107.333,192.933 110.333,193.6 113.5,193.5C 119.833,193.5 126.167,193.5 132.5,193.5C 135.01,193.946 137.01,193.28 138.5,191.5C 138.833,191.5 139.167,191.5 139.5,191.5C 142.467,191.011 145.133,189.845 147.5,188C 144.606,188.132 141.939,188.965 139.5,190.5C 139.167,190.5 138.833,190.5 138.5,190.5C 137.209,190.263 136.209,190.596 135.5,191.5C 134.209,191.263 133.209,191.596 132.5,192.5C 126.916,192.745 121.583,192.078 116.5,190.5C 114.485,189.076 112.152,188.41 109.5,188.5C 98.7456,185.074 90.7456,178.407 85.5,168.5C 85.4142,167.504 85.7476,166.671 86.5,166C 85.8333,165.667 85.1667,165.333 84.5,165C 85.8333,164.333 85.8333,163.667 84.5,163C 85.8193,162.805 87.1526,162.972 88.5,163.5C 93.2806,166.965 98.2806,169.965 103.5,172.5C 104.598,173.397 104.598,174.23 103.5,175C 104.609,175.638 105.775,176.138 107,176.5C 109.434,175.678 111.934,175.344 114.5,175.5C 119.507,175.751 124.507,176.084 129.5,176.5C 132.545,176.492 135.545,176.159 138.5,175.5C 140.308,175.509 141.975,175.009 143.5,174C 135.841,173.5 128.174,173.334 120.5,173.5C 111.997,172.407 104.331,169.407 97.5,164.5C 97.0269,163.094 96.0269,162.427 94.5,162.5C 93.4154,160.413 91.7488,159.08 89.5,158.5C 81.4691,152.142 75.8024,144.142 72.5,134.5C 71.2443,130.913 70.7443,127.246 71,123.5C 71.3333,123.167 71.6667,122.833 72,122.5C 73.0391,123.71 74.2058,124.71 75.5,125.5C 82.1076,131.937 89.441,137.437 97.5,142C 110.082,147.356 122.748,152.189 135.5,156.5C 135.987,157.473 136.487,158.473 137,159.5C 138.011,158.663 139.178,158.33 140.5,158.5C 141.574,159.885 142.907,161.051 144.5,162C 144.167,162.333 143.833,162.667 143.5,163C 145.473,163.495 147.473,163.662 149.5,163.5C 162.151,171.818 172.817,182.151 181.5,194.5C 181.5,195.167 181.5,195.833 181.5,196.5C 182.64,198.78 183.807,201.114 185,203.5C 185.588,200.861 185.088,198.527 183.5,196.5C 183.111,193.054 182.278,189.721 181,186.5C 180.617,187.056 180.117,187.389 179.5,187.5C 174.015,177.342 166.681,168.675 157.5,161.5C 157.027,160.094 156.027,159.427 154.5,159.5C 140.556,152.015 125.889,146.182 110.5,142C 86.339,131.175 69.839,113.342 61,88.5C 59.3638,83.6249 58.5305,78.6249 58.5,73.5C 58.1734,68.7863 58.5067,64.1196 59.5,59.5C 60.213,57.565 61.213,57.2317 62.5,58.5 Z"/></g>
<g><path style="opacity:0.949" fill="#676864" d="M 233.5,62.5 C 236.491,62.1663 238.824,63.1663 240.5,65.5C 237.843,65.0652 235.509,64.0652 233.5,62.5 Z"/></g>
<g><path style="opacity:0.718" fill="#7f807a" d="M 114.5,63.5 C 114.027,64.9063 113.027,65.573 111.5,65.5C 111.973,64.0937 112.973,63.427 114.5,63.5 Z"/></g>
<g><path style="opacity:1" fill="#1a1b19" d="M 126.5,61.5 C 126.5,61.8333 126.5,62.1667 126.5,62.5C 126.747,65.9387 126.414,69.272 125.5,72.5C 120.243,75.7486 115.243,79.4153 110.5,83.5C 108.596,83.7376 107.262,84.7376 106.5,86.5C 104.873,88.6298 103.04,90.6298 101,92.5C 97.9772,90.3024 95.1438,87.969 92.5,85.5C 91.8902,84.609 91.5569,83.609 91.5,82.5C 92.5,80.8333 93.8333,79.5 95.5,78.5C 98.4274,77.2427 100.761,75.2427 102.5,72.5C 105.792,70.5419 108.792,68.2085 111.5,65.5C 113.027,65.573 114.027,64.9063 114.5,63.5C 116.336,61.412 118.669,60.0787 121.5,59.5C 122.583,59.4606 123.583,59.1272 124.5,58.5C 125.176,59.6016 125.842,60.6016 126.5,61.5 Z"/></g>
<g><path style="opacity:0.384" fill="#97a493" d="M 66.5,66.5 C 67.9063,66.9731 68.573,67.9731 68.5,69.5C 67.0937,69.0269 66.427,68.0269 66.5,66.5 Z"/></g>
<g><path style="opacity:0.537" fill="#838480" d="M 111.5,65.5 C 108.792,68.2085 105.792,70.5419 102.5,72.5C 104.637,69.027 107.637,66.6936 111.5,65.5 Z"/></g>
<g><path style="opacity:0.737" fill="#7f7f7c" d="M 148.5,68.5 C 150.404,68.7376 151.738,69.7376 152.5,71.5C 150.596,71.2624 149.262,70.2624 148.5,68.5 Z"/></g>
<g><path style="opacity:0.859" fill="#8f908b" d="M 126.5,62.5 C 127.317,64.8309 127.984,67.3309 128.5,70C 128.252,71.7491 127.252,72.5824 125.5,72.5C 126.414,69.272 126.747,65.9387 126.5,62.5 Z"/></g>
<g><path style="opacity:1" fill="#252624" d="M 146.5,84.5 C 145.167,84.8333 143.833,85.1667 142.5,85.5C 136.957,77.7052 134.124,69.0386 134,59.5C 140.039,67.2064 147.039,73.873 155,79.5C 152.995,81.9447 150.162,83.6114 146.5,84.5 Z"/></g>
<g><path style="opacity:0.592" fill="#858582" d="M 69.5,71.5 C 71.2624,72.2623 72.2624,73.5956 72.5,75.5C 70.7376,74.7377 69.7376,73.4044 69.5,71.5 Z"/></g>
<g><path style="opacity:0.169" fill="#a6a7a2" d="M 199.5,74.5 C 190.476,74.3584 181.476,74.6917 172.5,75.5C 177.58,73.9848 182.914,73.3182 188.5,73.5C 192.349,73.5013 196.016,73.8346 199.5,74.5 Z"/></g>
<g><path style="opacity:0.459" fill="#90908f" d="M 255.5,73.5 C 257.027,73.427 258.027,74.0937 258.5,75.5C 256.973,75.573 255.973,74.9063 255.5,73.5 Z"/></g>
<g><path style="opacity:0.839" fill="#636361" d="M 102.5,72.5 C 100.761,75.2427 98.4274,77.2427 95.5,78.5C 97.2393,75.7573 99.5726,73.7573 102.5,72.5 Z"/></g>
<g><path style="opacity:0.827" fill="#686964" d="M 211.5,72.5 C 219.468,77.7591 218.801,78.7591 209.5,75.5C 210.873,75.6567 212.207,75.49 213.5,75C 212.244,74.5831 211.577,73.7498 211.5,72.5 Z"/></g>
<g><path style="opacity:1" fill="#151515" d="M 215.5,83.5 C 217.838,85.0395 220.505,85.7062 223.5,85.5C 224.492,85.3284 225.158,85.6618 225.5,86.5C 227.684,88.5848 230.351,89.5848 233.5,89.5C 240.662,92.6686 246.995,97.002 252.5,102.5C 254.214,105.213 256.547,107.213 259.5,108.5C 262.516,111.52 265.183,114.854 267.5,118.5C 269.833,122.833 273.167,126.167 277.5,128.5C 279.5,130.167 281.5,131.833 283.5,133.5C 283.5,134.167 283.167,134.5 282.5,134.5C 275.557,133.102 268.891,131.102 262.5,128.5C 258.557,127.531 255.557,125.197 253.5,121.5C 251.132,123.223 248.466,123.89 245.5,123.5C 243.708,123.634 242.042,123.301 240.5,122.5C 240.389,121.883 240.056,121.383 239.5,121C 236.518,120.502 233.518,120.335 230.5,120.5C 221.833,120.5 213.167,120.5 204.5,120.5C 202.585,120.216 200.919,120.549 199.5,121.5C 196.266,121.205 193.266,121.871 190.5,123.5C 191.167,123.833 191.833,124.167 192.5,124.5C 205.486,123.363 218.486,123.363 231.5,124.5C 233.621,124.325 235.621,124.659 237.5,125.5C 237.611,126.117 237.944,126.617 238.5,127C 240.473,127.495 242.473,127.662 244.5,127.5C 254.619,130.095 264.619,133.095 274.5,136.5C 275.635,138.213 277.302,138.88 279.5,138.5C 284.753,141.234 290.42,142.901 296.5,143.5C 303.012,143.066 305.679,146.066 304.5,152.5C 305.226,162.817 305.56,173.15 305.5,183.5C 304.618,195.811 300.951,207.145 294.5,217.5C 292.087,218.68 291.087,220.68 291.5,223.5C 290.974,225.23 289.974,226.564 288.5,227.5C 287.504,227.586 286.671,227.252 286,226.5C 285.383,227.449 285.549,228.282 286.5,229C 283.666,231.184 282.332,230.684 282.5,227.5C 280.019,227.677 278.186,226.677 277,224.5C 276.333,225.833 275.333,226.833 274,227.5C 273.333,226.167 272.667,226.167 272,227.5C 270.256,226.351 270.089,225.017 271.5,223.5C 269.955,222.548 268.288,222.215 266.5,222.5C 264.167,219.833 261.833,217.167 259.5,214.5C 258.089,212.086 256.089,210.419 253.5,209.5C 251.147,208.66 249.147,207.326 247.5,205.5C 247.282,202.634 247.115,199.634 247,196.5C 245.807,194.395 244.14,192.728 242,191.5C 237.805,193.066 233.638,194.732 229.5,196.5C 227.547,195.844 225.547,195.511 223.5,195.5C 222.92,191.19 222.586,186.857 222.5,182.5C 222.568,178.43 221.568,174.763 219.5,171.5C 218.596,170.791 218.263,169.791 218.5,168.5C 218.771,166.62 218.104,165.287 216.5,164.5C 216.771,162.62 216.104,161.287 214.5,160.5C 209.965,152.955 204.632,145.955 198.5,139.5C 197.415,137.413 195.749,136.08 193.5,135.5C 191.606,134.952 189.94,133.952 188.5,132.5C 188.167,132.667 187.833,132.833 187.5,133C 188.381,133.708 189.047,134.542 189.5,135.5C 189.484,137.629 190.151,139.462 191.5,141C 190.5,141.5 189.5,142 188.5,142.5C 187.139,140.972 185.972,139.305 185,137.5C 184.583,138.756 183.75,139.423 182.5,139.5C 167.477,125.99 150.811,114.99 132.5,106.5C 131.167,105.167 131.167,103.833 132.5,102.5C 139.128,96.2215 146.795,91.5548 155.5,88.5C 162.304,86.6739 168.971,84.6739 175.5,82.5C 180.925,81.0158 186.591,80.3491 192.5,80.5C 200.468,80.2868 208.135,81.2868 215.5,83.5 Z"/></g>
<g><path style="opacity:0.455" fill="#91928d" d="M 91.5,82.5 C 91.5569,83.609 91.8902,84.609 92.5,85.5C 90.4482,84.9473 90.1148,83.9473 91.5,82.5 Z"/></g>
<g><path style="opacity:0.114" fill="#989897" d="M 215.5,83.5 C 218.428,83.5651 221.095,84.2318 223.5,85.5C 220.505,85.7062 217.838,85.0395 215.5,83.5 Z"/></g>
<g><path style="opacity:0.576" fill="#8f8f8e" d="M 265.5,80.5 C 268.427,81.7573 270.761,83.7573 272.5,86.5C 269.573,85.2427 267.239,83.2427 265.5,80.5 Z"/></g>
<g><path style="opacity:0.035" fill="#c0c0be" d="M 110.5,83.5 C 109.738,85.2624 108.404,86.2624 106.5,86.5C 107.262,84.7376 108.596,83.7376 110.5,83.5 Z"/></g>
<g><path style="opacity:0.267" fill="#bcbcba" d="M 146.5,84.5 C 145.462,86.5195 144.128,86.8528 142.5,85.5C 143.833,85.1667 145.167,84.8333 146.5,84.5 Z"/></g>
<g><path style="opacity:0.804" fill="#80807c" d="M 289.5,84.5 C 291.914,85.9108 293.581,87.9108 294.5,90.5C 292.086,89.0892 290.419,87.0892 289.5,84.5 Z"/></g>
<g><path style="opacity:0.82" fill="#6a6b67" d="M 175.5,82.5 C 168.971,84.6739 162.304,86.6739 155.5,88.5C 161.656,85.1173 168.323,83.1173 175.5,82.5 Z"/></g>
<g><path style="opacity:0.545" fill="#80807d" d="M 225.5,86.5 C 228.443,86.9802 231.11,87.9802 233.5,89.5C 230.351,89.5848 227.684,88.5848 225.5,86.5 Z"/></g>
<g><path style="opacity:0.573" fill="#a1a19a" d="M 86.5,89.5 C 87.8333,90.1667 88.8333,91.1667 89.5,92.5C 87.5,92.5 86.5,91.5 86.5,89.5 Z"/></g>
<g><path style="opacity:0.722" fill="#7f807b" d="M 132.5,102.5 C 131.167,103.833 131.167,105.167 132.5,106.5C 128.5,105.167 128.5,103.833 132.5,102.5 Z"/></g>
<g><path style="opacity:0.651" fill="#80807e" d="M 252.5,102.5 C 255.427,103.757 257.761,105.757 259.5,108.5C 256.547,107.213 254.214,105.213 252.5,102.5 Z"/></g>
<g><path style="opacity:0.494" fill="#858581" d="M 303.5,102.5 C 304.906,102.973 305.573,103.973 305.5,105.5C 304.094,105.027 303.427,104.027 303.5,102.5 Z"/></g>
<g><path style="opacity:1" fill="#4d4e4b" d="M 105.5,103.5 C 108.004,104.584 110.337,105.917 112.5,107.5C 110.234,107.141 108.401,107.808 107,109.5C 104.833,108 105,106.833 107.5,106C 106.619,105.292 105.953,104.458 105.5,103.5 Z"/></g>
<g><path style="opacity:0.376" fill="#929291" d="M 305.5,105.5 C 306.906,105.973 307.573,106.973 307.5,108.5C 306.094,108.027 305.427,107.027 305.5,105.5 Z"/></g>
<g><path style="opacity:0.267" fill="#adaea9" d="M 69.5,117.5 C 68.596,118.209 68.2627,119.209 68.5,120.5C 67.3871,119.054 67.2204,117.387 68,115.5C 68.7172,116.044 69.2172,116.711 69.5,117.5 Z"/></g>
<g><path style="opacity:1" fill="#4d4e4a" d="M 134.5,117.5 C 138.149,118.267 141.482,119.6 144.5,121.5C 141.438,121.156 138.438,120.489 135.5,119.5C 135.137,118.817 134.804,118.15 134.5,117.5 Z"/></g>
<g><path style="opacity:0.761" fill="#90908e" d="M 267.5,118.5 C 271.167,121.5 274.5,124.833 277.5,128.5C 273.167,126.167 269.833,122.833 267.5,118.5 Z"/></g>
<g><path style="opacity:0.992" fill="#5a5a58" d="M 230.5,120.5 C 233.518,120.335 236.518,120.502 239.5,121C 240.056,121.383 240.389,121.883 240.5,122.5C 236.96,122.247 233.627,121.581 230.5,120.5 Z"/></g>
<g><path style="opacity:1" fill="#565752" d="M 69.5,117.5 C 71.8777,119.878 73.8777,122.545 75.5,125.5C 74.2058,124.71 73.0391,123.71 72,122.5C 71.6667,122.833 71.3333,123.167 71,123.5C 70.7443,127.246 71.2443,130.913 72.5,134.5C 69.9436,130.288 68.6102,125.622 68.5,120.5C 68.2627,119.209 68.596,118.209 69.5,117.5 Z"/></g>
<g><path style="opacity:0.071" fill="#bfbfbf" d="M 199.5,121.5 C 200.919,120.549 202.585,120.216 204.5,120.5C 208.167,121.167 211.833,121.833 215.5,122.5C 211.5,122.5 207.5,122.5 203.5,122.5C 202.432,121.566 201.099,121.232 199.5,121.5 Z"/></g>
<g><path style="opacity:0.82" fill="#626262" d="M 199.5,121.5 C 200.568,122.434 201.901,122.768 203.5,122.5C 207.5,122.5 211.5,122.5 215.5,122.5C 221.084,122.255 226.417,122.922 231.5,124.5C 218.486,123.363 205.486,123.363 192.5,124.5C 191.833,124.167 191.167,123.833 190.5,123.5C 193.266,121.871 196.266,121.205 199.5,121.5 Z"/></g>
<g><path style="opacity:1" fill="#50504d" d="M 144.5,121.5 C 148.42,122.127 151.753,123.793 154.5,126.5C 152.287,125.395 150.12,125.395 148,126.5C 146.331,125.154 145.164,123.487 144.5,121.5 Z"/></g>
<g><path style="opacity:1" fill="#3d3d3c" d="M 262.5,128.5 C 256.567,127.408 250.9,125.741 245.5,123.5C 248.466,123.89 251.132,123.223 253.5,121.5C 255.557,125.197 258.557,127.531 262.5,128.5 Z"/></g>
<g><path style="opacity:0.451" fill="#828280" d="M 237.5,125.5 C 240.067,125.721 242.401,126.388 244.5,127.5C 242.473,127.662 240.473,127.495 238.5,127C 237.944,126.617 237.611,126.117 237.5,125.5 Z"/></g>
<g><path style="opacity:0.302" fill="#959596" d="M 186.5,132.5 C 185.373,131.878 184.373,131.045 183.5,130C 185.489,129.481 186.489,130.314 186.5,132.5 Z"/></g>
<g><path style="opacity:0.431" fill="#9b9b95" d="M 283.5,133.5 C 284.289,133.783 284.956,134.283 285.5,135C 284.251,135.74 283.251,135.573 282.5,134.5C 283.167,134.5 283.5,134.167 283.5,133.5 Z"/></g>
<g><path style="opacity:0.894" fill="#60605e" d="M 193.5,135.5 C 195.749,136.08 197.415,137.413 198.5,139.5C 196.251,138.92 194.585,137.587 193.5,135.5 Z"/></g>
<g><path style="opacity:0.482" fill="#979796" d="M 274.5,136.5 C 276.403,136.796 278.07,137.463 279.5,138.5C 277.302,138.88 275.635,138.213 274.5,136.5 Z"/></g>
<g><path style="opacity:1" fill="#575754" d="M 305.5,135.5 C 306.467,136.806 307.801,137.473 309.5,137.5C 309.38,139.199 309.046,140.865 308.5,142.5C 309.809,146.4 310.476,150.4 310.5,154.5C 308.702,148.313 307.035,141.979 305.5,135.5 Z"/></g>
<g><path style="opacity:0.808" fill="#7a7a76" d="M 59.5,135.5 C 59.5905,138.152 58.9238,140.485 57.5,142.5C 57.4095,139.848 58.0762,137.515 59.5,135.5 Z"/></g>
<g><path style="opacity:0.982" fill="#474844" d="M 167.5,134.5 C 170.859,137.529 174.192,140.529 177.5,143.5C 172.271,142.604 168.938,139.604 167.5,134.5 Z"/></g>
<g><path style="opacity:0.596" fill="#878884" d="M 279.5,138.5 C 285.439,139.594 291.106,141.261 296.5,143.5C 290.42,142.901 284.753,141.234 279.5,138.5 Z"/></g>
<g><path style="opacity:1" fill="#181817" d="M 68.5,143.5 C 67.4191,154.483 66.4191,165.483 65.5,176.5C 65.4667,182.392 66.1333,188.059 67.5,193.5C 67.5,193.833 67.5,194.167 67.5,194.5C 67.3354,197.518 67.502,200.518 68,203.5C 68.3826,204.056 68.8826,204.389 69.5,204.5C 70.4511,205.919 70.7845,207.585 70.5,209.5C 70.2594,211.898 70.9261,213.898 72.5,215.5C 72.2594,217.898 72.9261,219.898 74.5,221.5C 77.62,229.073 81.2867,236.407 85.5,243.5C 85.427,245.027 86.0937,246.027 87.5,246.5C 87.427,248.027 88.0937,249.027 89.5,249.5C 91.5969,250.879 91.9302,252.545 90.5,254.5C 89.8826,254.611 89.3826,254.944 89,255.5C 88.308,258.936 87.308,262.27 86,265.5C 85.6174,264.944 85.1174,264.611 84.5,264.5C 78.0196,258.215 73.0196,250.882 69.5,242.5C 69.573,240.973 68.9063,239.973 67.5,239.5C 63.0004,231.009 59.6671,222.009 57.5,212.5C 57.2317,209.881 57.565,207.381 58.5,205C 57.0229,203.188 55.6896,201.355 54.5,199.5C 53.612,196.946 53.2786,194.279 53.5,191.5C 53.22,177.777 53.8867,164.11 55.5,150.5C 55.5651,147.572 56.2318,144.905 57.5,142.5C 58.9238,140.485 59.5905,138.152 59.5,135.5C 59.9182,132.91 60.9182,130.577 62.5,128.5C 64.5049,133.518 66.5049,138.518 68.5,143.5 Z"/></g>
<g><path style="opacity:0.631" fill="#6d6d6b" d="M 320.5,139.5 C 321.924,141.515 322.59,143.848 322.5,146.5C 321.076,144.485 320.41,142.152 320.5,139.5 Z"/></g>
<g><path style="opacity:0.908" fill="#757672" d="M 68.5,143.5 C 69.6651,144.496 70.3318,145.829 70.5,147.5C 66.8492,162.671 65.8492,178.004 67.5,193.5C 66.1333,188.059 65.4667,182.392 65.5,176.5C 66.4191,165.483 67.4191,154.483 68.5,143.5 Z"/></g>
<g><path style="opacity:0.78" fill="#7b7d79" d="M 182.5,149.5 C 184.262,150.262 185.262,151.596 185.5,153.5C 183.738,152.738 182.738,151.404 182.5,149.5 Z"/></g>
<g><path style="opacity:1" fill="#444442" d="M 200.5,150.5 C 202.588,152.336 203.921,154.669 204.5,157.5C 202.377,156.217 200.377,154.717 198.5,153C 199.381,152.292 200.047,151.458 200.5,150.5 Z"/></g>
<g><path style="opacity:0.843" fill="#737471" d="M 89.5,158.5 C 91.7488,159.08 93.4154,160.413 94.5,162.5C 92.2512,161.92 90.5846,160.587 89.5,158.5 Z"/></g>
<g><path style="opacity:1" fill="#5e5f5c" d="M 135.5,156.5 C 137.553,156.402 139.22,157.069 140.5,158.5C 139.178,158.33 138.011,158.663 137,159.5C 136.487,158.473 135.987,157.473 135.5,156.5 Z"/></g>
<g><path style="opacity:0.545" fill="#7f7f7e" d="M 188.5,157.5 C 189.906,157.973 190.573,158.973 190.5,160.5C 189.094,160.027 188.427,159.027 188.5,157.5 Z"/></g>
<g><path style="opacity:0.49" fill="#7f7f7e" d="M 154.5,159.5 C 156.027,159.427 157.027,160.094 157.5,161.5C 155.973,161.573 154.973,160.906 154.5,159.5 Z"/></g>
<g><path style="opacity:0.965" fill="#494a47" d="M 88.5,163.5 C 87.1526,162.972 85.8193,162.805 84.5,163C 85.8333,163.667 85.8333,164.333 84.5,165C 85.1667,165.333 85.8333,165.667 86.5,166C 85.7476,166.671 85.4142,167.504 85.5,168.5C 82.4064,164.53 80.7397,160.197 80.5,155.5C 82.8815,158.548 85.5482,161.215 88.5,163.5 Z"/></g>
<g><path style="opacity:1" fill="#4f504c" d="M 140.5,158.5 C 143.76,159.774 146.76,161.44 149.5,163.5C 147.473,163.662 145.473,163.495 143.5,163C 143.833,162.667 144.167,162.333 144.5,162C 142.907,161.051 141.574,159.885 140.5,158.5 Z"/></g>
<g><path style="opacity:0.361" fill="#999997" d="M 214.5,160.5 C 216.104,161.287 216.771,162.62 216.5,164.5C 215.326,163.486 214.66,162.153 214.5,160.5 Z"/></g>
<g><path style="opacity:0.494" fill="#7f7f7d" d="M 94.5,162.5 C 96.0269,162.427 97.0269,163.094 97.5,164.5C 95.9731,164.573 94.9731,163.906 94.5,162.5 Z"/></g>
<g><path style="opacity:0.529" fill="#7e7f7b" d="M 216.5,164.5 C 218.104,165.287 218.771,166.62 218.5,168.5C 217.326,167.486 216.66,166.153 216.5,164.5 Z"/></g>
<g><path style="opacity:0.329" fill="#a0a09d" d="M 304.5,152.5 C 305.934,158.775 306.6,165.275 306.5,172C 306.499,176.015 306.165,179.849 305.5,183.5C 305.56,173.15 305.226,162.817 304.5,152.5 Z"/></g>
<g><path style="opacity:0.791" fill="#484847" d="M 120.5,173.5 C 128.174,173.334 135.841,173.5 143.5,174C 141.975,175.009 140.308,175.509 138.5,175.5C 135.375,174.521 132.042,174.187 128.5,174.5C 125.615,174.806 122.948,174.473 120.5,173.5 Z"/></g>
<g><path style="opacity:1" fill="#565752" d="M 103.5,172.5 C 107.323,173.336 110.989,174.336 114.5,175.5C 111.934,175.344 109.434,175.678 107,176.5C 105.775,176.138 104.609,175.638 103.5,175C 104.598,174.23 104.598,173.397 103.5,172.5 Z"/></g>
<g><path style="opacity:0.057" fill="#b5b5b5" d="M 128.5,174.5 C 132.042,174.187 135.375,174.521 138.5,175.5C 135.545,176.159 132.545,176.492 129.5,176.5C 129.167,175.833 128.833,175.167 128.5,174.5 Z"/></g>
<g><path style="opacity:0.941" fill="#6e6f6b" d="M 196.5,171.5 C 198.806,175.085 200.139,179.085 200.5,183.5C 198.589,179.767 197.256,175.767 196.5,171.5 Z"/></g>
<g><path style="opacity:0.698" fill="#6d6e6a" d="M 219.5,171.5 C 221.568,174.763 222.568,178.43 222.5,182.5C 221.055,179.063 220.055,175.397 219.5,171.5 Z"/></g>
<g><path style="opacity:0.393" fill="#969792" d="M 55.5,150.5 C 53.8867,164.11 53.22,177.777 53.5,191.5C 52.3427,182.676 52.176,173.676 53,164.5C 53.354,159.611 54.1873,154.944 55.5,150.5 Z"/></g>
<g><path style="opacity:1" fill="#252624" d="M 189.5,135.5 C 194.318,139.652 197.985,144.652 200.5,150.5C 200.047,151.458 199.381,152.292 198.5,153C 200.377,154.717 202.377,156.217 204.5,157.5C 218.904,182.929 217.738,207.596 201,231.5C 196.214,237.128 190.714,241.795 184.5,245.5C 180.814,245.87 179.814,244.537 181.5,241.5C 183.808,239.529 186.142,237.529 188.5,235.5C 190.587,234.415 191.92,232.749 192.5,230.5C 210.278,206.253 211.112,181.253 195,155.5C 191,150.005 186.834,144.671 182.5,139.5C 183.75,139.423 184.583,138.756 185,137.5C 185.972,139.305 187.139,140.972 188.5,142.5C 189.5,142 190.5,141.5 191.5,141C 190.151,139.462 189.484,137.629 189.5,135.5 Z"/></g>
<g><path style="opacity:0.627" fill="#666762" d="M 311.5,159.5 C 313.497,167.45 313.831,175.45 312.5,183.5C 312.356,175.49 312.023,167.49 311.5,159.5 Z"/></g>
<g><path style="opacity:0.36" fill="#8b8b86" d="M 322.5,146.5 C 325.375,156.494 326.708,166.827 326.5,177.5C 326.708,188.173 325.375,198.506 322.5,208.5C 324.117,198.064 325.117,187.564 325.5,177C 325.108,166.758 324.108,156.591 322.5,146.5 Z"/></g>
<g><path style="opacity:0.867" fill="#63635f" d="M 109.5,188.5 C 112.152,188.41 114.485,189.076 116.5,190.5C 113.848,190.59 111.515,189.924 109.5,188.5 Z"/></g>
<g><path style="opacity:0.224" fill="#8f8f8f" d="M 139.5,191.5 C 139.5,191.167 139.5,190.833 139.5,190.5C 141.939,188.965 144.606,188.132 147.5,188C 145.133,189.845 142.467,191.011 139.5,191.5 Z"/></g>
<g><path style="opacity:1" fill="#50504f" d="M 183.5,196.5 C 183.167,196.5 182.833,196.5 182.5,196.5C 182.672,195.508 182.338,194.842 181.5,194.5C 181.122,192.079 180.455,189.746 179.5,187.5C 180.117,187.389 180.617,187.056 181,186.5C 182.278,189.721 183.111,193.054 183.5,196.5 Z"/></g>
<g><path style="opacity:1" fill="#5f605b" d="M 113.5,193.5 C 110.333,193.6 107.333,192.933 104.5,191.5C 103.417,192.365 103.251,193.365 104,194.5C 105.045,195.373 105.878,196.373 106.5,197.5C 102.065,194.9 98.3981,191.4 95.5,187C 101.449,189.261 107.449,191.428 113.5,193.5 Z"/></g>
<g><path style="opacity:0.859" fill="#787877" d="M 135.5,191.5 C 136.209,190.596 137.209,190.263 138.5,190.5C 138.5,190.833 138.5,191.167 138.5,191.5C 137.01,193.28 135.01,193.946 132.5,193.5C 132.5,193.167 132.5,192.833 132.5,192.5C 134.548,192.84 135.548,192.507 135.5,191.5 Z"/></g>
<g><path style="opacity:1" fill="#272725" d="M 247.5,205.5 C 239.692,201.592 231.692,198.259 223.5,195.5C 225.547,195.511 227.547,195.844 229.5,196.5C 233.638,194.732 237.805,193.066 242,191.5C 244.14,192.728 245.807,194.395 247,196.5C 247.115,199.634 247.282,202.634 247.5,205.5 Z"/></g>
<g><path style="opacity:0.365" fill="#828282" d="M 181.5,196.5 C 181.833,196.5 182.167,196.5 182.5,196.5C 182.833,197.833 183.167,197.833 183.5,196.5C 185.088,198.527 185.588,200.861 185,203.5C 183.807,201.114 182.64,198.78 181.5,196.5 Z"/></g>
<g><path style="opacity:0.992" fill="#64655f" d="M 67.5,194.5 C 68.5808,197.627 69.2474,200.96 69.5,204.5C 68.8826,204.389 68.3826,204.056 68,203.5C 67.502,200.518 67.3354,197.518 67.5,194.5 Z"/></g>
<g><path style="opacity:0.98" fill="#60615c" d="M 311.5,195.5 C 311.664,198.187 311.497,200.854 311,203.5C 310.617,204.056 310.117,204.389 309.5,204.5C 309.676,201.273 310.343,198.273 311.5,195.5 Z"/></g>
<g><path style="opacity:1" fill="#5c5c59" d="M 54.5,199.5 C 55.6896,201.355 57.0229,203.188 58.5,205C 57.565,207.381 57.2317,209.881 57.5,212.5C 55.7402,208.453 54.7402,204.12 54.5,199.5 Z"/></g>
<g><path style="opacity:0.871" fill="#626260" d="M 120.5,205.5 C 123.152,205.41 125.485,206.076 127.5,207.5C 124.848,207.59 122.515,206.924 120.5,205.5 Z"/></g>
<g><path style="opacity:0.38" fill="#919191" d="M 152.5,208.5 C 152.5,207.833 152.167,207.5 151.5,207.5C 154.07,206.358 156.736,205.524 159.5,205C 157.423,206.705 155.09,207.872 152.5,208.5 Z"/></g>
<g><path style="opacity:0.855" fill="#656661" d="M 122.5,210.5 C 120.801,210.34 119.134,210.506 117.5,211C 118.381,211.708 119.047,212.542 119.5,213.5C 116.74,212.577 114.74,210.744 113.5,208C 116.786,207.93 119.786,208.764 122.5,210.5 Z"/></g>
<g><path style="opacity:1" fill="#212120" d="M 238.5,210.5 C 238.5,210.833 238.5,211.167 238.5,211.5C 237.163,212.315 236.163,213.482 235.5,215C 234.1,216.438 232.433,217.271 230.5,217.5C 230.863,219.911 229.863,221.411 227.5,222C 225.633,222.711 224.133,222.211 223,220.5C 222,221.167 221,221.833 220,222.5C 218.857,225.295 218.357,228.128 218.5,231C 218.167,231.167 217.833,231.333 217.5,231.5C 216.416,230.335 215.583,229.002 215,227.5C 214.292,228.381 213.458,229.047 212.5,229.5C 213.584,226.996 214.917,224.663 216.5,222.5C 219.517,218.797 221.184,214.464 221.5,209.5C 221.575,206.794 221.908,204.127 222.5,201.5C 227.554,201.764 232.221,203.264 236.5,206C 237.582,207.33 238.249,208.83 238.5,210.5 Z"/></g>
<g><path style="opacity:0.882" fill="#5f5f5e" d="M 150.5,208.5 C 151.167,208.5 151.833,208.5 152.5,208.5C 151.319,210.067 149.653,210.901 147.5,211C 145.19,211.497 142.857,211.663 140.5,211.5C 143.887,210.712 147.22,209.712 150.5,208.5 Z"/></g>
<g><path style="opacity:0.414" fill="#7a7a77" d="M 122.5,210.5 C 128.145,211.134 133.811,211.468 139.5,211.5C 137.527,212.163 135.361,212.496 133,212.5C 129.218,212.621 125.718,211.954 122.5,210.5 Z"/></g>
<g><path style="opacity:0.831" fill="#767673" d="M 238.5,210.5 C 240.5,211.833 242.167,213.5 243.5,215.5C 241.251,214.92 239.585,213.587 238.5,211.5C 238.5,211.167 238.5,210.833 238.5,210.5 Z"/></g>
<g><path style="opacity:0.682" fill="#777876" d="M 253.5,209.5 C 256.089,210.419 258.089,212.086 259.5,214.5C 256.911,213.581 254.911,211.914 253.5,209.5 Z"/></g>
<g><path style="opacity:0.733" fill="#888883" d="M 70.5,209.5 C 71.7384,211.214 72.405,213.214 72.5,215.5C 70.9261,213.898 70.2594,211.898 70.5,209.5 Z"/></g>
<g><path style="opacity:0.675" fill="#868883" d="M 308.5,209.5 C 308.59,212.152 307.924,214.485 306.5,216.5C 306.41,213.848 307.076,211.515 308.5,209.5 Z"/></g>
<g><path style="opacity:1" fill="#52524f" d="M 199.5,210.5 C 199.206,213.754 197.873,216.421 195.5,218.5C 195.784,215.368 196.617,212.368 198,209.5C 198.383,210.056 198.883,210.389 199.5,210.5 Z"/></g>
<g><path style="opacity:1" fill="#161616" d="M 238.5,211.5 C 239.585,213.587 241.251,214.92 243.5,215.5C 248.294,218.761 253.627,220.261 259.5,220C 261.888,222.05 263.888,224.384 265.5,227C 262.988,232.214 261.655,237.714 261.5,243.5C 262.337,249.506 262.837,255.506 263,261.5C 260.758,263.715 258.258,264.048 255.5,262.5C 252.66,261.083 249.993,261.416 247.5,263.5C 244.265,264.733 241.265,266.399 238.5,268.5C 237.167,268.5 236.5,269.167 236.5,270.5C 231.725,276.395 226.725,282.062 221.5,287.5C 220.462,284.655 219.128,281.988 217.5,279.5C 217.145,274.45 215.812,269.783 213.5,265.5C 212.232,263.095 211.565,260.428 211.5,257.5C 211.741,255.102 211.074,253.102 209.5,251.5C 208.177,247.195 206.843,242.861 205.5,238.5C 206.709,236.059 208.376,234.059 210.5,232.5C 211.906,232.027 212.573,231.027 212.5,229.5C 213.458,229.047 214.292,228.381 215,227.5C 215.583,229.002 216.416,230.335 217.5,231.5C 217.833,231.333 218.167,231.167 218.5,231C 218.357,228.128 218.857,225.295 220,222.5C 221,221.833 222,221.167 223,220.5C 224.133,222.211 225.633,222.711 227.5,222C 229.863,221.411 230.863,219.911 230.5,217.5C 232.433,217.271 234.1,216.438 235.5,215C 236.163,213.482 237.163,212.315 238.5,211.5 Z"/></g>
<g><path style="opacity:0.545" fill="#727270" d="M 169.5,218.5 C 166.794,218.575 164.127,218.908 161.5,219.5C 163.993,217.416 166.66,217.083 169.5,218.5 Z"/></g>
<g><path style="opacity:0.702" fill="#949492" d="M 72.5,215.5 C 73.7384,217.214 74.405,219.214 74.5,221.5C 72.9261,219.898 72.2594,217.898 72.5,215.5 Z"/></g>
<g><path style="opacity:1" fill="#676765" d="M 294.5,217.5 C 294.008,219.819 293.008,221.819 291.5,223.5C 291.087,220.68 292.087,218.68 294.5,217.5 Z"/></g>
<g><path style="opacity:0.894" fill="#646461" d="M 221.5,209.5 C 221.184,214.464 219.517,218.797 216.5,222.5C 217.931,217.989 219.598,213.655 221.5,209.5 Z"/></g>
<g><path style="opacity:1" fill="#181817" d="M 137.5,226.5 C 142.65,227.651 147.984,227.817 153.5,227C 154.416,226.722 155.082,226.222 155.5,225.5C 170.569,220.947 174.235,225.614 166.5,239.5C 165.167,239.833 165.167,240.167 166.5,240.5C 174.126,240.411 174.459,241.911 167.5,245C 168.711,245.893 168.711,246.726 167.5,247.5C 165.786,246.391 165.119,247.058 165.5,249.5C 155.348,255.143 146.515,262.476 139,271.5C 133.759,279.483 132.259,288.15 134.5,297.5C 134.279,300.097 133.779,300.097 133,297.5C 130.416,300.102 127.916,300.102 125.5,297.5C 119.169,286.988 118.336,275.988 123,264.5C 125.196,260.388 127.196,256.388 129,252.5C 113.966,266.31 110.466,282.643 118.5,301.5C 118.986,303.807 118.986,305.973 118.5,308C 122.889,308.776 123.555,310.776 120.5,314C 122.632,314.92 124.632,316.087 126.5,317.5C 125.205,320.487 123.205,321.154 120.5,319.5C 107.23,310.97 98.8967,298.97 95.5,283.5C 95.5,276.833 95.5,270.167 95.5,263.5C 96.1859,262.152 97.1859,260.985 98.5,260C 97.6634,258.989 97.33,257.822 97.5,256.5C 98.6023,251.425 100.936,247.091 104.5,243.5C 106.587,242.415 107.92,240.749 108.5,238.5C 109.5,236.833 110.833,235.5 112.5,234.5C 115.427,233.243 117.761,231.243 119.5,228.5C 121.481,226.697 123.648,225.03 126,223.5C 129.877,224.733 133.711,225.733 137.5,226.5 Z"/></g>
<g><path style="opacity:0.98" fill="#474745" d="M 155.5,225.5 C 155.082,226.222 154.416,226.722 153.5,227C 147.984,227.817 142.65,227.651 137.5,226.5C 143.529,226.575 149.529,226.241 155.5,225.5 Z"/></g>
<g><path style="opacity:1" fill="#272725" d="M 266.5,222.5 C 268.288,222.215 269.955,222.548 271.5,223.5C 270.089,225.017 270.256,226.351 272,227.5C 272.667,226.167 273.333,226.167 274,227.5C 275.333,226.833 276.333,225.833 277,224.5C 278.186,226.677 280.019,227.677 282.5,227.5C 282.332,230.684 283.666,231.184 286.5,229C 285.549,228.282 285.383,227.449 286,226.5C 286.671,227.252 287.504,227.586 288.5,227.5C 285.95,232.39 282.616,236.723 278.5,240.5C 274.866,234.21 270.866,228.21 266.5,222.5 Z"/></g>
<g><path style="opacity:1" fill="#4e4e4c" d="M 317.5,224.5 C 316.296,229.895 314.296,234.895 311.5,239.5C 311.201,237.396 311.534,235.396 312.5,233.5C 313.887,230.139 315.553,227.139 317.5,224.5 Z"/></g>
<g><path style="opacity:0.898" fill="#5a5a56" d="M 119.5,228.5 C 117.761,231.243 115.427,233.243 112.5,234.5C 114.239,231.757 116.573,229.757 119.5,228.5 Z"/></g>
<g><path style="opacity:0.514" fill="#84857d" d="M 212.5,229.5 C 212.573,231.027 211.906,232.027 210.5,232.5C 210.427,230.973 211.094,229.973 212.5,229.5 Z"/></g>
<g><path style="opacity:0.275" fill="#979792" d="M 175.5,231.5 C 176.209,232.404 177.209,232.737 178.5,232.5C 177.105,234.3 175.439,234.634 173.5,233.5C 173.855,232.478 174.522,231.811 175.5,231.5 Z"/></g>
<g><path style="opacity:0.627" fill="#868685" d="M 192.5,230.5 C 191.92,232.749 190.587,234.415 188.5,235.5C 189.08,233.251 190.413,231.585 192.5,230.5 Z"/></g>
<g><path style="opacity:0.722" fill="#858581" d="M 179.5,240.5 C 178.817,238.824 177.483,238.157 175.5,238.5C 177.65,237.33 179.984,236.33 182.5,235.5C 183.016,237.733 182.016,239.4 179.5,240.5 Z"/></g>
<g><path style="opacity:0.89" fill="#767674" d="M 108.5,238.5 C 107.92,240.749 106.587,242.415 104.5,243.5C 105.08,241.251 106.413,239.585 108.5,238.5 Z"/></g>
<g><path style="opacity:1" fill="#383836" d="M 175.5,238.5 C 177.483,238.157 178.817,238.824 179.5,240.5C 175.353,244.315 170.686,247.315 165.5,249.5C 165.119,247.058 165.786,246.391 167.5,247.5C 168.711,246.726 168.711,245.893 167.5,245C 174.459,241.911 174.126,240.411 166.5,240.5C 166.5,240.167 166.5,239.833 166.5,239.5C 169.545,239.492 172.545,239.159 175.5,238.5 Z"/></g>
<g><path style="opacity:0.278" fill="#a8a8a6" d="M 67.5,239.5 C 68.9063,239.973 69.573,240.973 69.5,242.5C 68.0937,242.027 67.427,241.027 67.5,239.5 Z"/></g>
<g><path style="opacity:0.278" fill="#a1a1a0" d="M 311.5,239.5 C 311.25,241.674 310.25,243.341 308.5,244.5C 308.75,242.326 309.75,240.659 311.5,239.5 Z"/></g>
<g><path style="opacity:0.482" fill="#91918f" d="M 295.5,240.5 C 295.573,242.027 294.906,243.027 293.5,243.5C 293.427,241.973 294.094,240.973 295.5,240.5 Z"/></g>
<g><path style="opacity:0.459" fill="#9e9f90" d="M 85.5,243.5 C 86.9063,243.973 87.573,244.973 87.5,246.5C 86.0937,246.027 85.427,245.027 85.5,243.5 Z"/></g>
<g><path style="opacity:0.486" fill="#929290" d="M 87.5,246.5 C 88.9063,246.973 89.573,247.973 89.5,249.5C 88.0937,249.027 87.427,248.027 87.5,246.5 Z"/></g>
<g><path style="opacity:0.024" fill="#989898" d="M 131.5,251.5 C 131.5,250.833 131.167,250.5 130.5,250.5C 132.76,248.35 135.093,246.183 137.5,244C 138.167,243.333 138.833,243.333 139.5,244C 136.964,246.705 134.297,249.205 131.5,251.5 Z"/></g>
<g><path style="opacity:1" fill="#52534f" d="M 181.5,241.5 C 179.814,244.537 180.814,245.87 184.5,245.5C 175.895,252.469 166.228,257.303 155.5,260C 164.372,254.069 173.038,247.903 181.5,241.5 Z"/></g>
<g><path style="opacity:0.729" fill="#8b8b89" d="M 289.5,249.5 C 289.262,251.404 288.262,252.738 286.5,253.5C 286.738,251.596 287.738,250.262 289.5,249.5 Z"/></g>
<g><path style="opacity:0.592" fill="#898a87" d="M 209.5,251.5 C 211.074,253.102 211.741,255.102 211.5,257.5C 210.262,255.786 209.595,253.786 209.5,251.5 Z"/></g>
<g><path style="opacity:0.688" fill="#626260" d="M 255.5,262.5 C 252.794,262.575 250.127,262.908 247.5,263.5C 249.993,261.416 252.66,261.083 255.5,262.5 Z"/></g>
<g><path style="opacity:0.792" fill="#616161" d="M 97.5,256.5 C 97.33,257.822 97.6634,258.989 98.5,260C 97.1859,260.985 96.1859,262.152 95.5,263.5C 95.4095,260.848 96.0762,258.515 97.5,256.5 Z"/></g>
<g><path style="opacity:0.69" fill="#797a76" d="M 90.5,254.5 C 89.3633,258.417 88.53,262.417 88,266.5C 85.8511,267.84 84.6845,267.173 84.5,264.5C 85.1174,264.611 85.6174,264.944 86,265.5C 87.308,262.27 88.308,258.936 89,255.5C 89.3826,254.944 89.8826,254.611 90.5,254.5 Z"/></g>
<g><path style="opacity:0.827" fill="#64655f" d="M 278.5,262.5 C 276.5,266.5 273.5,269.5 269.5,271.5C 272.167,268.167 275.167,265.167 278.5,262.5 Z"/></g>
<g><path style="opacity:0.612" fill="#8e8f8b" d="M 213.5,265.5 C 215.812,269.783 217.145,274.45 217.5,279.5C 215.595,275.103 214.261,270.437 213.5,265.5 Z"/></g>
<g><path style="opacity:0.075" fill="#b3b3b3" d="M 238.5,268.5 C 238.167,269.5 237.5,270.167 236.5,270.5C 236.5,269.167 237.167,268.5 238.5,268.5 Z"/></g>
<g><path style="opacity:0.888" fill="#6f6f69" d="M 95.5,263.5 C 95.5,270.167 95.5,276.833 95.5,283.5C 92.9629,276.824 92.9629,270.157 95.5,263.5 Z"/></g>
<g><path style="opacity:0.898" fill="#71726d" d="M 217.5,279.5 C 219.128,281.988 220.462,284.655 221.5,287.5C 220.923,288.773 220.257,288.773 219.5,287.5C 218.518,284.904 217.851,282.238 217.5,279.5 Z"/></g>
<g><path style="opacity:0.659" fill="#90908e" d="M 255.5,281.5 C 255.027,282.906 254.027,283.573 252.5,283.5C 252.973,282.094 253.973,281.427 255.5,281.5 Z"/></g>
<g><path style="opacity:1" fill="#1a1a1a" d="M 221.5,44.5 C 227.205,47.0684 233.205,49.0684 239.5,50.5C 259.156,57.4984 275.823,68.8317 289.5,84.5C 290.419,87.0892 292.086,89.0892 294.5,90.5C 298.262,93.9289 301.262,97.9289 303.5,102.5C 303.427,104.027 304.094,105.027 305.5,105.5C 305.427,107.027 306.094,108.027 307.5,108.5C 313.577,118.055 317.911,128.388 320.5,139.5C 320.41,142.152 321.076,144.485 322.5,146.5C 324.108,156.591 325.108,166.758 325.5,177C 325.117,187.564 324.117,198.064 322.5,208.5C 322.009,214.3 320.343,219.633 317.5,224.5C 315.553,227.139 313.887,230.139 312.5,233.5C 311.534,235.396 311.201,237.396 311.5,239.5C 309.75,240.659 308.75,242.326 308.5,244.5C 293.414,271.92 271.414,291.587 242.5,303.5C 238.463,304.065 234.797,305.399 231.5,307.5C 228.848,307.41 226.515,308.076 224.5,309.5C 199.144,316.487 173.811,315.987 148.5,308C 145.928,305.687 144.261,302.854 143.5,299.5C 143.38,297.801 143.046,296.135 142.5,294.5C 142.747,293.287 143.414,292.62 144.5,292.5C 153.697,295.466 163.03,297.799 172.5,299.5C 177.58,301.015 182.914,301.682 188.5,301.5C 193.767,301.713 198.767,301.046 203.5,299.5C 220.891,297.369 237.225,292.036 252.5,283.5C 254.027,283.573 255.027,282.906 255.5,281.5C 259.883,277.786 264.55,274.453 269.5,271.5C 273.5,269.5 276.5,266.5 278.5,262.5C 281.195,259.474 283.862,256.474 286.5,253.5C 288.262,252.738 289.262,251.404 289.5,249.5C 290.449,247.223 291.782,245.223 293.5,243.5C 294.906,243.027 295.573,242.027 295.5,240.5C 299.563,232.626 303.23,224.626 306.5,216.5C 307.924,214.485 308.59,212.152 308.5,209.5C 308.366,207.708 308.699,206.042 309.5,204.5C 310.117,204.389 310.617,204.056 311,203.5C 311.497,200.854 311.664,198.187 311.5,195.5C 311.307,191.434 311.64,187.434 312.5,183.5C 313.831,175.45 313.497,167.45 311.5,159.5C 310.549,158.081 310.216,156.415 310.5,154.5C 310.476,150.4 309.809,146.4 308.5,142.5C 309.046,140.865 309.38,139.199 309.5,137.5C 307.801,137.473 306.467,136.806 305.5,135.5C 297.757,117.027 286.757,100.694 272.5,86.5C 270.761,83.7573 268.427,81.7573 265.5,80.5C 262.883,79.2141 260.55,77.5475 258.5,75.5C 258.027,74.0937 257.027,73.427 255.5,73.5C 250.333,71.0843 245.333,68.4176 240.5,65.5C 238.824,63.1663 236.491,62.1663 233.5,62.5C 225.974,60.0349 218.307,58.0349 210.5,56.5C 209.737,55.7321 208.737,55.2321 207.5,55C 201.523,54.1691 195.523,53.6691 189.5,53.5C 187.824,51.1663 185.491,50.1663 182.5,50.5C 178.182,49.0078 174.182,47.0078 170.5,44.5C 170.167,43.8333 169.833,43.1667 169.5,42.5C 186.95,39.6173 204.284,40.2839 221.5,44.5 Z"/></g>
<g><path style="opacity:0.914" fill="#7e7f79" d="M 144.5,292.5 C 143.414,292.62 142.747,293.287 142.5,294.5C 143.046,296.135 143.38,297.801 143.5,299.5C 141.173,296.856 140.506,293.856 141.5,290.5C 142.739,290.942 143.739,291.609 144.5,292.5 Z"/></g>
<g><path style="opacity:0.581" fill="#8b8b88" d="M 172.5,299.5 C 182.841,300.635 193.174,300.635 203.5,299.5C 198.767,301.046 193.767,301.713 188.5,301.5C 182.914,301.682 177.58,301.015 172.5,299.5 Z"/></g>
<g><path style="opacity:0.985" fill="#343532" d="M 125.5,297.5 C 127.916,300.102 130.416,300.102 133,297.5C 133.779,300.097 134.279,300.097 134.5,297.5C 136.952,303.063 139.952,308.396 143.5,313.5C 143.167,313.833 142.833,314.167 142.5,314.5C 135.812,309.812 130.146,304.146 125.5,297.5 Z"/></g>
<g><path style="opacity:0.027" fill="#999a97" d="M 242.5,303.5 C 239.203,305.601 235.537,306.935 231.5,307.5C 234.797,305.399 238.463,304.065 242.5,303.5 Z"/></g>
<g><path style="opacity:0.063" fill="#a3a3a0" d="M 231.5,307.5 C 229.485,308.924 227.152,309.59 224.5,309.5C 226.515,308.076 228.848,307.41 231.5,307.5 Z"/></g>
<g><path style="opacity:0.42" fill="#8f8f8d" d="M 123.5,310.5 C 124.906,310.973 125.573,311.973 125.5,313.5C 124.094,313.027 123.427,312.027 123.5,310.5 Z"/></g>
<g><path style="opacity:1" fill="#41413f" d="M 118.5,301.5 C 120.417,304.331 122.083,307.331 123.5,310.5C 123.427,312.027 124.094,313.027 125.5,313.5C 130.083,318.949 134.916,324.283 140,329.5C 140.667,330.167 140.667,330.833 140,331.5C 132.819,328.461 126.319,324.461 120.5,319.5C 123.205,321.154 125.205,320.487 126.5,317.5C 124.632,316.087 122.632,314.92 120.5,314C 123.555,310.776 122.889,308.776 118.5,308C 118.986,305.973 118.986,303.807 118.5,301.5 Z"/></g>
</svg>
